<?xml version="1.0" standalone="no"?>
<!DOCTYPE svg PUBLIC "-//W3C//DTD SVG 20010904//EN"
 "http://www.w3.org/TR/2001/REC-SVG-20010904/DTD/svg10.dtd">
<svg version="1.0" xmlns="http://www.w3.org/2000/svg"
 width="1280.000000pt" height="806.000000pt" viewBox="0 0 1280.000000 806.000000"
 preserveAspectRatio="xMidYMid meet">
<metadata>
Created by potrace 1.15, written by Peter Selinger 2001-2017
</metadata>
<g transform="translate(0.000000,806.000000) scale(0.100000,-0.100000)"
fill="#000000" stroke="none">
<path d="M570 8046 c-244 -34 -405 -90 -482 -167 -66 -66 -82 -125 -82 -294 0
-150 15 -201 91 -317 50 -77 222 -241 371 -357 120 -92 181 -147 213 -192 13
-19 76 -95 139 -169 63 -74 131 -155 151 -180 101 -127 185 -285 209 -390 19
-88 49 -168 100 -270 89 -181 89 -178 93 -430 4 -248 4 -245 88 -470 l43 -115
6 -215 c6 -207 7 -217 33 -271 15 -31 32 -82 39 -115 15 -77 61 -149 161 -251
67 -69 92 -87 154 -113 62 -26 80 -30 104 -21 21 7 38 6 61 -3 29 -13 30 -14
10 -20 -12 -4 -22 -14 -22 -23 0 -12 8 -13 40 -8 23 4 88 1 145 -5 l104 -13
-76 -71 c-41 -39 -95 -84 -118 -101 -24 -16 -51 -43 -60 -60 -10 -16 -35 -48
-55 -70 -33 -35 -40 -50 -50 -115 -7 -41 -23 -109 -36 -150 -12 -41 -28 -104
-34 -140 -6 -36 -18 -76 -27 -89 -12 -19 -14 -44 -11 -120 4 -83 9 -105 39
-166 l34 -70 1 -195 c0 -118 6 -217 13 -250 16 -68 54 -146 90 -185 24 -26 56
-74 158 -243 21 -35 40 -81 94 -226 29 -79 74 -126 188 -196 76 -47 106 -73
143 -122 42 -57 119 -205 148 -285 19 -51 58 -83 158 -130 148 -70 266 -155
327 -238 68 -91 85 -106 135 -112 34 -5 43 -11 54 -38 19 -44 71 -73 163 -91
170 -32 317 -76 404 -119 104 -53 135 -55 239 -20 70 24 118 49 289 153 172
105 330 245 436 387 29 39 69 86 90 105 170 161 563 700 693 950 33 63 75 139
95 167 19 29 38 67 42 85 4 18 20 49 36 69 17 22 41 80 63 150 19 63 55 157
79 209 50 108 79 211 104 376 17 114 17 114 47 122 28 8 32 6 38 -17 4 -14 7
-78 7 -142 0 -74 5 -131 14 -160 8 -24 17 -80 21 -124 7 -103 29 -166 66 -194
17 -12 30 -27 30 -34 0 -7 4 -18 9 -26 7 -11 16 -7 45 21 20 19 36 40 36 45 0
6 10 13 23 17 13 3 30 18 37 33 36 71 74 85 85 31 11 -51 59 -150 105 -218 23
-34 53 -89 66 -121 26 -63 63 -127 164 -279 34 -52 75 -122 91 -155 15 -33 57
-96 92 -140 34 -44 78 -106 97 -138 19 -33 52 -72 73 -89 20 -16 74 -74 120
-128 45 -53 125 -144 177 -202 78 -85 107 -128 163 -233 38 -71 81 -145 97
-165 15 -19 30 -45 34 -57 4 -12 16 -25 27 -28 10 -4 31 -17 47 -29 15 -13 38
-27 51 -31 13 -4 43 -22 67 -40 24 -19 115 -69 201 -113 116 -59 173 -82 214
-87 53 -7 61 -4 161 44 120 58 242 93 402 116 146 21 286 85 286 130 0 15 129
139 206 197 84 64 170 114 224 128 114 31 157 78 226 250 65 162 129 240 266
324 43 26 86 59 96 74 10 15 40 86 66 157 48 130 96 228 189 383 89 150 90
152 97 452 6 240 9 270 28 318 18 42 22 72 22 160 0 97 -4 119 -35 211 -19 57
-44 149 -56 204 -33 157 -60 199 -193 300 -45 34 -101 80 -125 102 l-44 40 94
11 c57 7 118 21 155 37 89 39 169 57 249 57 68 0 72 2 126 44 74 58 173 222
188 311 5 33 25 97 45 141 l36 82 -6 174 c-4 142 -2 188 12 248 17 75 79 251
108 308 13 26 16 68 16 255 0 170 4 234 14 265 8 23 50 103 92 179 106 189
124 234 131 317 3 39 10 76 15 83 5 6 11 31 12 55 4 52 63 188 83 188 8 0 20
15 28 33 22 54 229 282 314 346 42 32 153 107 246 166 271 172 367 258 430
390 95 197 82 401 -32 535 -58 68 -210 140 -336 160 -34 6 -96 16 -137 24 -90
18 -447 21 -601 6 -247 -25 -523 -85 -785 -171 -370 -121 -865 -353 -1239
-582 -333 -203 -872 -600 -1075 -792 -41 -39 -111 -102 -155 -140 -231 -200
-578 -549 -947 -950 -80 -88 -224 -239 -320 -336 -95 -97 -207 -213 -248 -258
-70 -74 -79 -81 -114 -81 -31 0 -47 8 -82 40 -23 21 -54 42 -68 46 -16 4 -34
22 -50 51 l-25 45 54 171 c142 451 310 871 497 1240 55 109 98 201 95 204 -17
17 -44 -25 -140 -219 -174 -351 -299 -661 -442 -1093 -51 -154 -96 -295 -100
-313 -9 -44 -37 -53 -130 -45 l-74 6 -64 76 c-363 430 -619 944 -724 1453 -16
78 -31 127 -37 125 -17 -6 -9 -80 24 -213 96 -400 277 -794 524 -1144 67 -95
204 -268 229 -288 12 -10 14 -19 7 -38 -6 -14 -9 -30 -7 -37 5 -28 -255 0
-343 37 -31 13 -235 229 -349 370 -393 484 -905 1037 -1216 1315 -651 581
-1003 829 -1545 1089 -524 252 -995 394 -1515 457 -178 22 -572 28 -695 11z"/>
</g>
</svg>
